<svg xmlns="http://www.w3.org/2000/svg" width="100" height="100" viewBox="0 0 100 100">
    <defs>
        <clipPath id="8fiyktgv7a">
            <rect data-name="Rectangle 1788" width="100" height="100" rx="10" transform="translate(25 55)" style="fill:#fff"/>
        </clipPath>
    </defs>
    <g data-name="Mask Group 2" transform="translate(-25 -55)" style="clip-path:url(#8fiyktgv7a)">
        <g data-name="Group 4">
            <path data-name="Path 43690" d="M64.813 100.978H53.621c-1.574 0-2.144-.567-2.146-2.129 0-4.177.01-8.351-.01-12.528a1.763 1.763 0 0 1 1.3-1.993c.622-.161.371-.59.373-.9q.025-7.151.01-14.3a15.042 15.042 0 0 1 7.928-13.843q6.924-4.07 13.876-8.098a2.2 2.2 0 0 0 1.072-1.3c2.359-6.854 4.759-13.7 7.129-20.548a6.869 6.869 0 0 1 7.547-4.751 6.688 6.688 0 0 1 5.556 6.81 1.12 1.12 0 0 0 .5 1.03 6.473 6.473 0 0 1 2.586 7.357c-2.372 8.958-4.8 17.9-7.2 26.85a8.826 8.826 0 0 1-2.816 4.411c-3.475 3.065-6.9 6.184-10.413 9.2a5.926 5.926 0 0 0-2.326 5.19 11.5 11.5 0 0 1 0 1.566c-.046.712-.067 1.294.863 1.547a1.38 1.38 0 0 1 .816 1.455c0 4.42.015 8.839-.01 13.259-.006 1.114-.712 1.7-1.928 1.708-3.835.01-7.671 0-11.506 0zM56.5 75.072c0 3.1.027 5.638-.017 8.178-.013.762.117 1.051.986 1.043 4.916-.05 9.834-.04 14.749-.008.762 0 1.143-.109 1.038-.986-.086-.72 0-1.459-.021-2.19a8.775 8.775 0 0 1 3.224-7.147c3.541-3.09 7.041-6.239 10.563-9.35a6.013 6.013 0 0 0 1.926-3.023Q92.49 48.311 96.06 35.04a3.357 3.357 0 0 0-2.24-4.386 3.551 3.551 0 0 0-4.185 2.571C88 38.239 86.387 43.258 84.742 48.268a2.075 2.075 0 0 0 .088 1.673 6.435 6.435 0 0 1-2.284 8.2c-3.268 2.048-6.651 3.913-10.005 5.82a1.594 1.594 0 0 1-2.257-.618c-.517-.9-.209-1.8.871-2.426 3.069-1.777 6.159-3.515 9.212-5.318a3.335 3.335 0 1 0-3.373-5.751C72 52.746 67 55.626 62.058 58.608a11.034 11.034 0 0 0-5.376 8.062c-.461 2.973-.057 5.977-.191 8.408zm8.37 22.563c3.065 0 6.13-.021 9.2.017.676.008.875-.167.867-.856q-.06-4.17 0-8.343c.01-.689-.191-.858-.867-.856q-9.2.038-18.39 0c-.676 0-.875.167-.867.856q.06 4.17 0 8.343c-.01.689.191.865.867.856 3.065-.036 6.13-.015 9.2-.015zM89.7 23.89a3.454 3.454 0 0 0-3.314 2.4c-.595 1.666-1.166 3.341-1.748 5.012-1.61 4.618-3.2 9.245-4.851 13.847-.285.791-.107 1.045.651 1.1a.976.976 0 0 1 .4.111c.735.423.992.144 1.231-.616 1.426-4.535 2.9-9.053 4.384-13.569a6.708 6.708 0 0 1 5.877-4.912c.536-.069.632-.234.546-.706A3.328 3.328 0 0 0 89.7 23.89z" style="fill:#030303" transform="translate(25.185 54.018)"/>
            <path data-name="Path 43691" d="M34.676 100.978H23.484c-1.574 0-2.144-.567-2.144-2.131 0-4.177.01-8.351-.01-12.528a1.776 1.776 0 0 1 1.3-1.993c.379-.1.4-.3.383-.588a1.725 1.725 0 0 1 0-.312c.49-3.53-.764-6.172-3.632-8.383-3.163-2.441-6.013-5.288-9.032-7.92A9.533 9.533 0 0 1 7.33 62.24q-3.473-13.086-7-26.151a6.655 6.655 0 0 1 2.6-7.723 1.008 1.008 0 0 0 .417-.965A6.705 6.705 0 0 1 8.9 20.588a6.958 6.958 0 0 1 7.6 4.847c2.357 6.892 4.765 13.767 7.137 20.653a1.71 1.71 0 0 0 .842.978c4.809 2.8 9.63 5.571 14.4 8.435a14.74 14.74 0 0 1 7.56 13.2c.057 4.872.015 9.744.006 14.615 0 .534-.038.946.674 1.143.8.222 1.011.959 1.009 1.754-.008 4.281 0 8.561-.008 12.842a1.7 1.7 0 0 1-1.939 1.916c-3.835.013-7.671 0-11.506 0zM43.1 75.7c0-2.332.027-4.664-.006-6.995a11.511 11.511 0 0 0-5.849-10.292c-4.8-2.881-9.658-5.661-14.49-8.485a3.674 3.674 0 0 0-1.451-.549 3.318 3.318 0 0 0-3.609 2.213 3.265 3.265 0 0 0 1.556 4.022c3.032 1.771 6.086 3.5 9.122 5.267 1.156.672 1.474 1.574.925 2.489-.534.892-1.493 1.038-2.638.381-2.983-1.715-5.969-3.427-8.942-5.163a6.621 6.621 0 0 1-2.864-8.871 1.279 1.279 0 0 0 .155-.988C13.275 43.421 11.573 38.1 9.8 32.8a3.239 3.239 0 0 0-2.816-2.2 3.263 3.263 0 0 0-3.511 4.26c2.366 8.852 4.771 17.693 7.129 26.545a6.294 6.294 0 0 0 1.987 3.218c3.557 3.13 7.083 6.293 10.637 9.423a8.68 8.68 0 0 1 3.023 5.32 26.394 26.394 0 0 1 .088 4.168c0 .6.172.743.756.741q7.637-.035 15.273 0c.6 0 .75-.167.743-.752-.031-2.611-.013-5.219-.013-7.83zm-8.407 21.934c3.1 0 6.2-.01 9.3.01.536 0 .806-.057.8-.71-.036-2.885-.031-5.77 0-8.655.006-.576-.2-.68-.72-.678q-9.352.022-18.7 0c-.567 0-.693.18-.689.712.023 2.849.036 5.7-.006 8.55-.01.678.218.793.829.787 3.065-.029 6.13-.013 9.2-.013zM9.886 23.89a3.317 3.317 0 0 0-3.166 2.673c-.084.477.031.63.555.7a6.812 6.812 0 0 1 5.908 5.02q2.048 6.337 4.118 12.666c.549 1.685.546 1.664 2.179 1.237.475-.124.588-.243.41-.747-2.249-6.415-4.457-12.844-6.706-19.259a3.491 3.491 0 0 0-3.3-2.295z" style="fill:#030303" transform="translate(25.185 54.018)"/>
            <path data-name="Path 43692" d="M21.21 17.008a15.99 15.99 0 0 1 10-14.473c6.452-2.822 12.522-1.75 17.9 2.812.605.513.856.452 1.4-.036a16.7 16.7 0 0 1 27.8 13.732 16.075 16.075 0 0 1-4.717 10.409q-11.123 11.192-22.326 22.3c-1.066 1.061-1.872 1.049-2.954-.029q-11.1-11.067-22.181-22.148c-3.276-3.285-4.868-7.294-4.918-12.568zM38.733 4.417c-6.147 0-10.979 3.061-13.041 8.073-2.161 5.249-1.438 10.238 2.5 14.324 6.911 7.175 14.063 14.119 21.1 21.17.375.375.592.429 1 .025 7.085-7.1 14.253-14.127 21.256-21.311a13.173 13.173 0 0 0 1.382-16.133A13.43 13.43 0 0 0 57.67 5a15.21 15.21 0 0 0-6.461 4.263 1.718 1.718 0 0 1-2.8.023c-.377-.362-.737-.741-1.116-1.1a12.78 12.78 0 0 0-8.554-3.766z" style="fill:#030303" transform="translate(25.185 54.018)"/>
            <path data-name="Path 43693" d="M55.656 87.6c-.664 0-.858.174-.85.856q.06 4.17 0 8.343c-.01.674.182.856.825.856h.042c1.442-.017 2.885-.021 4.325-.021 1.623 0 3.245.006 4.868.006s3.245-.006 4.87-.006c1.442 0 2.885 0 4.325.021h.039c.643 0 .833-.182.823-.856q-.06-4.17 0-8.343c.01-.683-.186-.856-.85-.856h-.017q-4.6.019-9.193.019t-9.2-.019h-.017z" style="fill:#e95a25" transform="translate(25.185 54.018)"/>
            <path data-name="Path 43694" d="M25.357 87.6c-.559 0-.685.182-.68.712.023 2.849.036 5.7-.006 8.55-.01.662.207.787.787.787h.042a432.78 432.78 0 0 1 4.413-.017h9.493c1.57 0 3.059 0 4.589.013h.04c.511 0 .766-.073.758-.71-.036-2.885-.031-5.77 0-8.655.006-.572-.2-.678-.712-.678h-.01q-4.645.013-9.287.013c-3.1 0-6.279 0-9.417-.015h-.008z" style="fill:#e95a25" transform="translate(25.185 54.018)"/>
            <path data-name="Path 43695" d="M61.622 4.4a13.211 13.211 0 0 0-3.955.6 15.21 15.21 0 0 0-6.461 4.263 1.966 1.966 0 0 1-1.385.737 2.122 2.122 0 0 1-1.415-.712c-.377-.362-.737-.741-1.116-1.1a12.78 12.78 0 0 0-8.554-3.766h-.01c-6.14 0-10.968 3.065-13.03 8.073-2.161 5.249-1.438 10.238 2.5 14.324 6.911 7.175 14.063 14.119 21.1 21.17.2.2.35.306.511.306a.734.734 0 0 0 .486-.281c7.085-7.1 14.253-14.127 21.256-21.311a13.173 13.173 0 0 0 1.381-16.137A13.438 13.438 0 0 0 61.627 4.4zm-17.51 14.714c.53 0 .7-.184.676-.754a84.956 84.956 0 0 1-.008-4.07 1.681 1.681 0 0 1 1.878-1.87q1.564-.016 3.128-.015t3.149.015a1.682 1.682 0 0 1 1.884 1.863c.023 1.392.025 2.784 0 4.175-.01.479.128.651.6.651h.048a86.085 86.085 0 0 1 1.968-.021c.7 0 1.407.006 2.11.013 1.363.013 1.972.616 1.981 1.981q.019 3.027 0 6.055c-.008 1.367-.616 1.974-1.976 1.987-.7.006-1.39.013-2.087.013s-1.327-.006-1.993-.019h-.048c-.461 0-.613.157-.6.645.031 1.357.021 2.713.006 4.07s-.628 1.967-1.996 1.976q-1.517.009-3.034.01t-3.034-.01c-1.364-.009-1.974-.609-1.986-1.975s-.023-2.713.006-4.07c.01-.486-.136-.647-.6-.647h-.048q-.992.022-1.987.021c-.7 0-1.394-.006-2.091-.013-1.363-.015-1.962-.618-1.978-1.985-.013-1.009 0-2.018 0-3.027 0-1.045-.015-2.087 0-3.132a1.685 1.685 0 0 1 1.87-1.878c.706-.01 1.411-.019 2.117-.019.653 0 1.308.008 1.962.027h.082z" style="fill:#e95a25" transform="translate(25.185 54.018)"/>
            <path data-name="Path 43696" d="M38.08 24.112c0-1.045-.015-2.087 0-3.132a1.685 1.685 0 0 1 1.87-1.878 89.418 89.418 0 0 1 4.078.008c.595.019.777-.153.758-.752a84.956 84.956 0 0 1-.008-4.07 1.681 1.681 0 0 1 1.878-1.87q3.137-.028 6.274 0a1.682 1.682 0 0 1 1.884 1.863c.023 1.392.025 2.784 0 4.175-.01.5.136.662.643.651 1.359-.031 2.72-.021 4.078-.008s1.972.616 1.981 1.981q.019 3.027 0 6.055c-.008 1.367-.616 1.974-1.976 1.987s-2.72.023-4.078-.006c-.5-.01-.662.14-.649.645.031 1.357.021 2.713.006 4.07s-.619 1.969-1.987 1.976q-3.034.019-6.065 0c-1.369-.008-1.974-.613-1.987-1.974s-.023-2.713.006-4.07c.01-.5-.147-.657-.647-.647-1.359.029-2.72.021-4.078.006s-1.961-.622-1.979-1.985c-.013-1.009 0-2.018 0-3.027zm6.237-1.671H44c-2.661 0-2.644 0-2.588 2.657.01.536.134.714.693.7a89.829 89.829 0 0 1 4.185-.006 1.672 1.672 0 0 1 1.83 1.813c.023.764 0 1.53 0 2.3 0 2.655 0 2.638 2.661 2.583.538-.01.714-.134.7-.691a92.32 92.32 0 0 1-.006-4.177 1.669 1.669 0 0 1 1.813-1.826c.766-.021 1.535 0 2.3 0 2.661 0 2.644 0 2.59-2.655-.01-.532-.128-.716-.689-.7a89.83 89.83 0 0 1-4.185.008 1.672 1.672 0 0 1-1.832-1.809c-.023-.764 0-1.53 0-2.3 0-2.657 0-2.64-2.659-2.586-.534.01-.718.128-.7.689a86.81 86.81 0 0 1 .006 4.177 1.676 1.676 0 0 1-1.815 1.828c-.662.021-1.325 0-1.987 0z" style="fill:#030303" transform="translate(25.185 54.018)"/>
        </g>
    </g>
</svg>
