<svg xmlns="http://www.w3.org/2000/svg" width="100" height="100" viewBox="0 0 100 100">
    <defs>
        <clipPath id="rfj79osaaa">
            <rect data-name="Rectangle 1788" width="100" height="100" rx="10" transform="translate(25 55)" style="fill:#fff"/>
        </clipPath>
    </defs>
    <g data-name="Mask Group 4" transform="translate(-25 -55)" style="clip-path:url(#rfj79osaaa)">
        <g data-name="Group 6">
            <path data-name="Path 43706" d="M32.271 3.612c.861-.513 1.574-.927 2.277-1.357A15.019 15.019 0 0 1 42.575.014Q60.612.032 78.649.02a17.524 17.524 0 0 1 12.762 5.264q3.26 3.224 6.486 6.482a6.285 6.285 0 0 1 .7 8.629c-2.066 2.527-5.539 2.9-8.512.921a3.818 3.818 0 0 0-.37-.184c.867 3.329.584 6.65.588 9.948q.027 27.406-.012 54.812c0 .925.139 1.269 1.161 1.212 1.812-.1 1.818-.028 2.127 1.8.578 3.406 1.137 6.813 1.747 10.213.133.739-.077.873-.784.871q-10.681-.039-21.361-.01c-.551 0-.941.038-.8-.76q1.012-5.693 1.923-11.407c.093-.576.25-.782.861-.757.723.03 1.717.341 2.107-.135.368-.448.137-1.4.137-2.133q.006-29.321 0-58.64a6.444 6.444 0 0 0-6.755-6.767 6.625 6.625 0 0 0-1.388.222 3.67 3.67 0 0 0-1.632.743c-.525.493.046 1.04.081 1.565a6.262 6.262 0 0 1-2.515 5.724 1.6 1.6 0 0 0-.7 1.493c.036 2.083.028 4.165.01 6.246a6.448 6.448 0 1 1-12.893-.046c-.012-1.814-.042-3.628.016-5.44.024-.727-.2-.889-.889-.861A19.119 19.119 0 0 1 40.159 26.8c-1.873-1.089-3.757-.978-5.708-.986-2.178-.01-2.224 0-2.157 2.153.026.865-.17 1.1-1.073 1.093Q16.1 29 .99 29.055c-.77 0-.99-.166-.988-.968C.036 19.054.03 20.8 0 11.766 0 10.995 7.537 0 8.336 0 18.446.03 21.2.028 31.307 0c.774 0 1.056.17.98.974s-.016 1.61-.016 2.636zm28.477-.368H42.615a12.4 12.4 0 0 0-3.284.406c-2.539.689-4.569 2.35-6.82 3.588-.319.176-.236.45-.236.7 0 4.666.006 9.334-.016 14 0 .539.158.671.675.663 1.78-.03 3.559.01 5.339-.022a2.856 2.856 0 0 1 1.687.479 17.3 17.3 0 0 0 9.52 2.755q5.742.009 11.483 0a3.237 3.237 0 1 0 .006-6.444c-2.854-.006-5.708 0-8.563 0-2.434 0-2.4 0-2.42-2.438-.006-.695.224-.828.846-.8a2.64 2.64 0 0 0 2.537-.749c.935-1.135 2.068-2.107 3.109-3.155a8.271 8.271 0 0 1 6.141-2.537q8.311.024 16.622 0a8.435 8.435 0 0 1 6.31 2.624c1.955 1.986 3.933 3.949 5.91 5.914 1.412 1.4 3.246 1.527 4.46.319s1.119-3.056-.279-4.46c-2.131-2.143-4.278-4.268-6.409-6.411a14.531 14.531 0 0 0-10.756-4.43c-5.91.016-11.821 0-17.731 0zm-44.5 0c-4.064 0-.77.016-4.832-.016-.656-.006-8.189 10.944-8.187 11.6.024 6.985.028 3.19 0 10.175 0 .654.164.826.822.824q12.089-.036 24.181 0c.654 0 .826-.164.824-.822q-.036-10.478 0-20.955c0-.654-.164-.83-.822-.824-4 .032-7.993.016-11.991.016zm40.872 12.9c1.5 0 2.765.008 4.03 0a6.091 6.091 0 0 1 3.85 1.23.9.9 0 0 0 1.214.067 9.167 9.167 0 0 1 7.078-1 9.667 9.667 0 0 1 7.343 9.716q.009 29.812 0 59.625a5.129 5.129 0 0 1-.006.7c-.069.507.162.61.624.6 1.644-.024 3.293-.061 4.935.012.788.034.911-.222.911-.943q-.03-30.115-.022-60.229a16.107 16.107 0 0 0-5.359-12.148 2.908 2.908 0 0 0-2.118-.854q-8.663 0-17.325.006a4.568 4.568 0 0 0-3.19 1.281c-.614.572-1.194 1.176-1.963 1.937zm34.5 80.607c-.331-2.044-.654-3.991-.959-5.943-.067-.426-.285-.515-.683-.513-4.058.012-8.114.02-12.172-.006-.531 0-.695.192-.768.661-.259 1.654-.515 3.309-.828 4.953-.137.719.073.873.782.867 3.856-.036 7.712-.018 11.568-.018h3.058zm-30.326-64.09c0-.972-.034-1.945.012-2.915.028-.572-.151-.731-.719-.719q-2.512.055-5.028 0c-.558-.012-.739.127-.727.711.038 1.911-.006 3.822.02 5.731a3.219 3.219 0 1 0 6.438.006c.024-.937 0-1.877.006-2.816z" style="fill:#010101" transform="translate(25 55.005)"/>
            <path data-name="Path 43707" d="M.024 56.559c0-3.559.012-7.118-.012-10.68 0-.547.111-.743.7-.733a38.016 38.016 0 0 0 25-8.753c1.7-1.353 1.761-1.347 3.495.03a38.894 38.894 0 0 0 16.9 8.029 35.168 35.168 0 0 0 7.805.691c.7-.02.962.095.955.9-.04 6.514.02 13.029-.034 19.543A35.568 35.568 0 0 1 28.09 99.851a2.269 2.269 0 0 1-1.277.012Q4.991 93.436.5 71.137a50.012 50.012 0 0 1-.477-9.942v-4.634zm3.226 2.327c.131 3.266-.325 7.246.374 11.174C6.013 83.487 13.764 92.254 26.7 96.49a2.432 2.432 0 0 0 1.464.018A32.45 32.45 0 0 0 51.6 66.069c.065-5.64 0-11.282.036-16.921 0-.681-.226-.814-.834-.848a39.259 39.259 0 0 1-6.953-1.042 40.691 40.691 0 0 1-15.7-7.615c-.473-.37-.788-.519-1.353-.075A40.381 40.381 0 0 1 4.078 48.3c-.7.046-.856.265-.848.939.04 2.988.018 5.977.018 9.651z" style="fill:#010101" transform="translate(25 55.005)"/>
            <path data-name="Path 43708" d="M27.431 88.687a20.956 20.956 0 1 1 20.963-20.929 21 21 0 0 1-20.963 20.929zm1.616-33.7a7.262 7.262 0 0 1 .008-1.006c.091-.64-.176-.772-.782-.774-2.45-.008-2.481-.03-2.434 2.416a1.215 1.215 0 0 1-.891 1.388 6.355 6.355 0 0 0-2.295 10.2 6.572 6.572 0 0 0 4.921 2.153 3.2 3.2 0 0 1 3.07 2.923 3.247 3.247 0 0 1-2.412 3.4c-1.481.408-3.347-.327-3.68-1.83-.319-1.446-1.125-1.345-2.125-1.287a3.288 3.288 0 0 1-.7 0c-.659-.1-.81.182-.709.788a6.845 6.845 0 0 0 2.509 4.333c.7.578 1.9.558 2.222 1.361a7.891 7.891 0 0 1 .079 2.693c0 .228-.04.5.319.5a7.874 7.874 0 0 0 2.761-.151c.444-.186.083-1.3.143-1.99a.845.845 0 0 0 0-.2c-.131-.766.154-1.151.917-1.462a6.422 6.422 0 0 0-2.624-12.32 3.232 3.232 0 0 1-3.115-2.882 3.265 3.265 0 0 1 2.456-3.468 3.03 3.03 0 0 1 3.668 1.895c.311 1.224.933 1.382 1.939 1.246a2.411 2.411 0 0 1 .7 0c.8.135.986-.192.84-.937a6.351 6.351 0 0 0-4.03-5.014c-.622-.246-.846-.535-.76-1.159a5.928 5.928 0 0 0 .006-.8zm-12.9 12.75a1.426 1.426 0 0 0-1.61-1.616 1.613 1.613 0 1 0-.006 3.226 1.422 1.422 0 0 0 1.617-1.614zm24.205-1.616a1.612 1.612 0 1 0 1.592 1.632 1.425 1.425 0 0 0-1.591-1.636z" style="fill:#d69e36" transform="translate(25 55.005)"/>
            <path data-name="Path 43709" d="M29.047 54.983a5.925 5.925 0 0 1-.006.8c-.087.622.137.911.76 1.159a6.346 6.346 0 0 1 4.03 5.014c.145.745-.042 1.075-.84.937a2.343 2.343 0 0 0-.7 0c-1.006.135-1.628-.022-1.939-1.246a3.032 3.032 0 0 0-3.668-1.895 3.22 3.22 0 0 0 .659 6.351 6.422 6.422 0 0 1 2.624 12.32c-.764.311-1.048.7-.917 1.462a.752.752 0 0 1 0 .2c-.061.691.3 1.8-.143 1.99a7.873 7.873 0 0 1-2.761.151c-.358.006-.317-.269-.319-.5a7.893 7.893 0 0 0-.079-2.693c-.319-.8-1.519-.784-2.222-1.361a6.859 6.859 0 0 1-2.509-4.333c-.1-.606.053-.891.709-.788a3.289 3.289 0 0 0 .7 0c1-.059 1.806-.16 2.125 1.287.331 1.5 2.2 2.238 3.68 1.83a3.245 3.245 0 0 0 2.412-3.4 3.2 3.2 0 0 0-3.07-2.923 6.572 6.572 0 0 1-4.921-2.153 6.355 6.355 0 0 1 2.295-10.2 1.215 1.215 0 0 0 .891-1.388c-.046-2.446-.016-2.424 2.434-2.416.606 0 .873.131.782.774a7.262 7.262 0 0 0-.008 1.006z" style="fill:#010101" transform="translate(25 55.005)"/>
            <path data-name="Path 43710" d="M16.148 67.733a1.426 1.426 0 0 1-1.616 1.61 1.613 1.613 0 1 1 .006-3.226 1.429 1.429 0 0 1 1.61 1.616z" style="fill:#010101" transform="translate(25 55.005)"/>
            <path data-name="Path 43711" d="M40.353 66.117a1.612 1.612 0 1 1-.04 3.224 1.612 1.612 0 1 1 .04-3.224z" style="fill:#010101" transform="translate(25 55.005)"/>
        </g>
    </g>
</svg>
